<svg width="24" height="24" viewBox="0 0 24 24" fill="none" xmlns="http://www.w3.org/2000/svg">
<path fill-rule="evenodd" clip-rule="evenodd" d="M2.01 3.8702L3.42 2.4502L21.15 20.2002L19.74 21.6102L16.31 18.1802C14.97 18.7002 13.52 19.0002 12 19.0002C7 19.0002 2.73 15.8902 1 11.5002C1.77 9.5302 3.06 7.8302 4.69 6.5502L2.01 3.8702ZM17 11.5002C17 8.7402 14.76 6.5002 12 6.5002C11.49 6.5002 11 6.6002 10.53 6.7402L8.36 4.5702C9.51 4.2002 10.73 4.0002 12 4.0002C17 4.0002 21.27 7.1102 23 11.4902C22.31 13.2502 21.21 14.7902 19.82 16.0202L16.76 12.9602C16.9 12.5002 17 12.0102 17 11.5002ZM12 16.5002C9.24 16.5002 7 14.2602 7 11.5002C7 10.7302 7.18 10.0002 7.49 9.3602L9.06 10.9302C9.03 11.1102 9 11.3002 9 11.5002C9 13.1602 10.34 14.5002 12 14.5002C12.2 14.5002 12.38 14.4702 12.57 14.4302L14.14 16.0002C13.49 16.3202 12.77 16.5002 12 16.5002ZM14.97 11.1702C14.82 9.7702 13.72 8.6802 12.33 8.5302L14.97 11.1702Z" fill="white"/>
</svg>
